<mxfile host="app.diagrams.net" modified="2024-04-09T15:30:02.710Z" agent="Mozilla/5.0 (Windows NT 10.0; Win64; x64) AppleWebKit/537.36 (KHTML, like Gecko) Chrome/123.0.0.0 Safari/537.36" version="24.2.3" etag="GGMHwqkFu7T0FmV97BUy" type="github">
  <diagram name="第 1 页" id="uCxY-zBwjqNt-MoFCl_6">
    <mxGraphModel>
      <root>
        <mxCell id="0" />
        <mxCell id="1" parent="0" />
      </root>
    </mxGraphModel>
  </diagram>
</mxfile>
